<svg width="1440" height="759" viewBox="0 0 1440 759" fill="none" xmlns="http://www.w3.org/2000/svg">
<g clip-path="url(#clip0_32_137)">
<rect width="1440" height="759" fill="#046DB2"/>
<path d="M366.497 5.5C366.497 191.649 224.543 342.5 49.4969 342.5C-125.549 342.5 -267.503 191.649 -267.503 5.5C-267.503 -180.649 -125.549 -331.5 49.4969 -331.5C224.543 -331.5 366.497 -180.649 366.497 5.5Z" stroke="white"/>
<path d="M252.5 -29C252.5 119.268 126.937 239.5 -28 239.5C-182.937 239.5 -308.5 119.268 -308.5 -29C-308.5 -177.268 -182.937 -297.5 -28 -297.5C126.937 -297.5 252.5 -177.268 252.5 -29Z" stroke="white"/>
<path d="M1627.5 894.5C1627.5 1025.95 1521.39 1132.5 1390.5 1132.5C1259.61 1132.5 1153.5 1025.95 1153.5 894.5C1153.5 763.054 1259.61 656.5 1390.5 656.5C1521.39 656.5 1627.5 763.054 1627.5 894.5Z" stroke="white"/>
<path d="M1667.5 891.5C1667.5 1077.65 1525.55 1228.5 1350.5 1228.5C1175.45 1228.5 1033.5 1077.65 1033.5 891.5C1033.5 705.351 1175.45 554.5 1350.5 554.5C1525.55 554.5 1667.5 705.351 1667.5 891.5Z" stroke="white"/>
</g>
<defs>
<clipPath id="clip0_32_137">
<rect width="1440" height="759" fill="white"/>
</clipPath>
</defs>
</svg>
